<?xml version="1.0" encoding="UTF-8"?>
<svg version="1.1" xmlns="http://www.w3.org/2000/svg" width="1258" height="960">
<path d="M0 0 C415.14 0 830.28 0 1258 0 C1258 316.8 1258 633.6 1258 960 C842.86 960 427.72 960 0 960 C0 643.2 0 326.4 0 0 Z " fill="#252525" transform="translate(0,0)"/>
<path d="M0 0 C0 51.81 0 103.62 0 157 C-20.34012891 157 -20.34012891 157 -27.75 155.5625 C-36.08623491 154.12265796 -44.30307525 153.54247034 -52.75488281 153.29125977 C-53.62854492 153.26475342 -54.50220703 153.23824707 -55.40234375 153.2109375 C-56.17054443 153.19337402 -56.93874512 153.17581055 -57.73022461 153.15771484 C-60 153 -60 153 -62.39990234 152.51586914 C-65.3450415 151.93154247 -68.2023089 151.71879649 -71.19921875 151.53515625 C-72.41029297 151.45716797 -73.62136719 151.37917969 -74.86914062 151.29882812 C-77.36388535 151.14442193 -79.85867531 150.99074445 -82.35351562 150.83789062 C-92.30647808 150.1952584 -102.05314345 149.10520628 -112 148 C-112 103.78 -112 59.56 -112 14 C-79.06458158 9.60861088 -79.06458158 9.60861088 -64.60873413 7.78942871 C-51.21211867 6.10085302 -37.84006964 4.32161002 -24.49536133 2.25585938 C-16.29693991 0.99466698 -8.30532751 0 0 0 Z " fill="#272626" transform="translate(696,184)"/>
<path d="M0 0 C21.83022907 1.14895942 21.83022907 1.14895942 31.4140625 2.33984375 C33.01125626 2.53037071 33.01125626 2.53037071 34.64071655 2.7247467 C37.96954776 3.12314235 41.29726545 3.53005709 44.625 3.9375 C46.85149248 4.20566013 49.07805484 4.4732407 51.3046875 4.74023438 C55.6002995 5.2560683 59.89552917 5.77490699 64.19042969 6.29663086 C69.12320782 6.89516145 74.05704934 7.48377229 78.9921875 8.0625 C79.99295822 8.17989029 79.99295822 8.17989029 81.01394653 8.2996521 C83.72971155 8.61781965 86.44556379 8.93523776 89.16143799 9.25247192 C93.55038143 9.76550684 97.93882783 10.28247578 102.32666016 10.80493164 C103.80401254 10.98001665 105.28156026 11.15345963 106.75927734 11.32543945 C108.93376791 11.57880791 111.10754597 11.83763767 113.28125 12.09765625 C114.55033203 12.24726807 115.81941406 12.39687988 117.12695312 12.55102539 C120 13 120 13 121 14 C121.09624593 15.72092653 121.12187598 17.44583382 121.12025452 19.16944885 C121.12231651 20.85013458 121.12231651 20.85013458 121.12442017 22.56477356 C121.11902725 24.42485298 121.11902725 24.42485298 121.11352539 26.32250977 C121.11367142 27.61988068 121.11381744 28.91725159 121.1139679 30.25393677 C121.11425586 33.82195929 121.10835932 37.38994848 121.10139394 40.95796323 C121.09516021 44.6829062 121.09455659 48.40784986 121.09336853 52.13279724 C121.09025527 59.19117363 121.08204195 66.2495346 121.07201904 73.30790418 C121.06085774 81.34162971 121.05534741 89.37535596 121.05032361 97.4090873 C121.03985934 113.93940057 121.02226 130.46969832 121 147 C119.56812156 146.85073401 118.13653589 146.69865794 116.70507812 146.54541016 C115.90783325 146.46102692 115.11058838 146.37664368 114.28918457 146.28970337 C111.27157965 145.90781616 108.42845959 145.19240984 105.5 144.375 C104.56160278 144.11722778 104.56160278 144.11722778 103.60424805 143.85424805 C99.64171494 142.76024536 95.69067626 141.62605969 91.73828125 140.49609375 C79.31409148 136.95878953 66.85104167 133.66474434 54.3125 130.5625 C42.55804358 127.65399457 30.82489783 124.6838963 19.125 121.5625 C17.88403564 121.23258057 16.64307129 120.90266113 15.36450195 120.56274414 C10.17412849 119.17061326 5.10422592 117.70140864 0 116 C0 77.72 0 39.44 0 0 Z " fill="#272727" transform="translate(580,403)"/>
<path d="M0 0 C-5.91138262 5.91138262 -15.18772228 7.0238942 -23 10 C-23 132.76 -23 255.52 -23 382 C-0.23 390.415 -0.23 390.415 23 399 C32.56296349 402.54042266 42.12574026 406.08133061 51.6875 409.625 C56.10799629 411.26322771 60.52855455 412.90128793 64.94921875 414.5390625 C66.50393387 415.11506195 66.50393387 415.11506195 68.09005737 415.70269775 C75.33379236 418.38539087 82.58047729 421.05998775 89.83073425 423.7250061 C90.5308815 423.98252655 91.23102875 424.240047 91.95239258 424.50537109 C92.62030823 424.75099792 93.28822388 424.99662476 93.97637939 425.24969482 C96.11072831 426.04105514 98.23893536 426.84783141 100.36743164 427.65478516 C103.84734194 428.94346758 107.09654542 429.72726461 110.7265625 430.375 C113 431 113 431 115.8515625 432.4296875 C119.10892412 434.05432692 122.2602105 435.10379432 125.75 436.125 C131.83333333 437.91666667 131.83333333 437.91666667 134 439 C134 439.66 134 440.32 134 441 C130.50045021 440.5714837 127.19908019 440.058553 123.8125 439.0625 C119.7142546 437.92036604 115.66847392 437.24007103 111.47265625 436.56640625 C107.47456028 435.91429836 103.48598788 435.22204335 99.5 434.5 C98.81752197 434.38148682 98.13504395 434.26297363 97.43188477 434.14086914 C94.81690565 433.66184113 92.43580976 433.22528637 90.0612793 431.99780273 C87.82249671 430.91407604 86.01169805 430.56527265 83.55078125 430.25390625 C82.27750977 430.08084961 82.27750977 430.08084961 80.97851562 429.90429688 C79.22087945 429.6789589 77.46306983 429.45496914 75.70507812 429.23242188 C74.84978516 429.11576172 73.99449219 428.99910156 73.11328125 428.87890625 C72.34798096 428.7816626 71.58268066 428.68441895 70.79418945 428.58422852 C68.32394352 428.06773236 66.13725078 427.37318331 63.76464844 426.53442383 C59.09577441 424.93577457 54.534256 424.19091868 49.65234375 423.5703125 C40.36239522 422.2786434 31.2600897 420.47593757 22.10778809 418.44070435 C17.61286263 417.44168232 13.11322232 416.46442472 8.61328125 415.48828125 C7.21038345 415.18364204 7.21038345 415.18364204 5.77914429 414.87284851 C-7.31247374 412.04712895 -20.45878286 409.48583041 -33.60327148 406.91943359 C-35.4178065 406.56217705 -37.23234103 406.20491806 -39.046875 405.84765625 C-39.86690506 405.68968063 -40.68693512 405.53170502 -41.53181458 405.36894226 C-42.29829819 405.21762344 -43.0647818 405.06630463 -43.85449219 404.91040039 C-44.84361603 404.71795494 -44.84361603 404.71795494 -45.85272217 404.5216217 C-48.61524128 403.85054416 -51.30302555 402.89899148 -54 402 C-54 272.64 -54 143.28 -54 10 C-45.75 8.35 -37.5 6.7 -29 5 C-23.57979369 3.85905221 -18.16167974 2.71348484 -12.75 1.53320312 C-11.79609375 1.33017578 -10.8421875 1.12714844 -9.859375 0.91796875 C-9.03920898 0.74031982 -8.21904297 0.5626709 -7.37402344 0.37963867 C-4.8778042 -0.01954077 -2.52363942 -0.06592433 0 0 Z " fill="#E6DAB8" transform="translate(581,170)"/>
<path d="M0 0 C3.8830935 3.35358075 6.75496195 7.23137939 9.75 11.375 C10.925625 12.86 10.925625 12.86 12.125 14.375 C14.2654301 18.32656325 14.55275194 21.93691865 14.75 26.375 C15.41 26.375 16.07 26.375 16.75 26.375 C17.35941451 42.59714554 17.63970461 57.71998736 6.96484375 71.05859375 C2.11896532 76.12668177 -3.03893246 80.00520166 -10.25 80.375 C-10.25 81.035 -10.25 81.695 -10.25 82.375 C-33.02742271 83.45253455 -33.02742271 83.45253455 -40.25 77.375 C-49.28668005 68.9704516 -56.01103326 60.07297272 -56.515625 47.33203125 C-56.52420161 45.95053764 -56.51863276 44.56889458 -56.5 43.1875 C-56.48984863 42.08438477 -56.48984863 42.08438477 -56.47949219 40.95898438 C-56.20846802 26.42452565 -53.83053076 15.35297995 -43.6875 4.609375 C-40.18934974 1.40273726 -36.57699847 -0.72675738 -32.25 -2.625 C-31.321875 -3.058125 -30.39375 -3.49125 -29.4375 -3.9375 C-19.29925541 -6.12418021 -9.23018275 -4.61509138 0 0 Z " fill="#E1D4B4" transform="translate(987.25,675.625)"/>
<path d="M0 0 C7.69297853 5.68166804 12.96538705 11.89616115 16 21 C18.09408846 37.28735472 18.63108429 53.67180067 8.8671875 67.62890625 C3.02153894 75.05214616 -3.82882059 78.59900584 -13 81 C-17.41245363 81.48971167 -21.58491754 81.40869733 -26 81 C-26.81339844 80.93941406 -27.62679687 80.87882813 -28.46484375 80.81640625 C-36.364386 79.69186684 -42.1046535 74.50867372 -47.046875 68.51953125 C-56.14487765 55.35853169 -57.49740103 40.54741335 -56 25 C-54.10467546 15.02992003 -47.820022 6.46646474 -39.90625 0.21875 C-29.39794293 -6.49967583 -10.49236323 -6.81179602 0 0 Z " fill="#E4D7B6" transform="translate(890,677)"/>
<path d="M0 0 C32 0 32 0 41 3 C41 3.66 41 4.32 41 5 C41.94875 5.144375 42.8975 5.28875 43.875 5.4375 C50.66672162 7.37403977 56.77293785 13.5747056 60.5 19.4375 C63.77983821 27.22711574 64.20494889 34.68964629 64.3125 43.0625 C64.33022461 43.90127686 64.34794922 44.74005371 64.36621094 45.60424805 C64.35416585 55.85562245 60.5129037 66.81468577 53.59765625 74.5546875 C47.27452 80.27488411 40.37062405 82.96702937 32 84 C32 84.66 32 85.32 32 86 C21.44 86 10.88 86 0 86 C0 57.62 0 29.24 0 0 Z " fill="#E0D4B3" transform="translate(330,672)"/>
<path d="M0 0 C31 0 31 0 41 3 C41 3.66 41 4.32 41 5 C41.94875 5.144375 42.8975 5.28875 43.875 5.4375 C50.31537116 7.28697522 55.74065283 12.70486633 59.45703125 18.125 C60.47521803 20.07747801 61.29201713 21.91452872 62 24 C62.35191406 25.00675781 62.70382812 26.01351562 63.06640625 27.05078125 C66.62925846 39.89068692 65.37536407 56.33340738 59 68 C53.20981703 77.06736775 44.13579218 81.83088033 33.93359375 84.45703125 C32.00976501 84.82703227 32.00976501 84.82703227 31 86 C20.77 86 10.54 86 0 86 C0 57.62 0 29.24 0 0 Z " fill="#E0D4B4" transform="translate(421,672)"/>
<path d="M0 0 C38 0 38 0 46 6 C46 6.66 46 7.32 46 8 C46.74121094 8.08378906 47.48242188 8.16757812 48.24609375 8.25390625 C51.59895778 9.16227083 52.77701882 10.35213461 55.0625 12.9375 C56.03896484 14.00291016 56.03896484 14.00291016 57.03515625 15.08984375 C62.7341206 23.53065576 63.63435995 31.41088878 63.5 41.4375 C63.51546875 42.58798828 63.5309375 43.73847656 63.546875 44.92382812 C63.49130683 57.18355639 60.34143094 65.77078822 51.7890625 74.61328125 C37.2275808 87.07415705 18.17271909 84 0 84 C0 56.28 0 28.56 0 0 Z " fill="#E4D8B7" transform="translate(747,673)"/>
<path d="M0 0 C38 0 38 0 50 6 C55.76870844 13.21088555 56.59958715 19.5469759 56.44140625 28.60546875 C55.61070705 34.99376611 53.08239764 41.42210656 48.04296875 45.63671875 C46.125 46.75 46.125 46.75 43 48 C43.62347533 52.3145097 45.16928036 55.64526492 47.16015625 59.5078125 C47.62415077 60.41876175 47.62415077 60.41876175 48.09751892 61.34811401 C49.08007647 63.27676057 50.07029815 65.20129911 51.0625 67.125 C52.37277716 69.66581759 53.67509197 72.2104837 54.97265625 74.7578125 C55.55281494 75.8833252 56.13297363 77.00883789 56.73071289 78.16845703 C58 81 58 81 58 84 C53.05 84 48.1 84 43 84 C42.49210937 82.98421875 41.98421875 81.9684375 41.4609375 80.921875 C41.1304541 80.26098877 40.7999707 79.60010254 40.45947266 78.91918945 C39.73232458 77.4647296 39.0054395 76.01013822 38.27880859 74.55541992 C36.59289814 71.18099615 34.90337475 67.80864 33.203125 64.44140625 C32.42195313 62.89259766 32.42195313 62.89259766 31.625 61.3125 C31.16351562 60.40113281 30.70203125 59.48976563 30.2265625 58.55078125 C29.0404192 56.08405648 28.01653007 53.54132517 27 51 C22.71 50.67 18.42 50.34 14 50 C14 61.55 14 73.1 14 85 C9.38 85 4.76 85 0 85 C0 56.95 0 28.9 0 0 Z " fill="#E4D7B6" transform="translate(1031,673)"/>
<path d="M0 0 C4.62 0 9.24 0 14 0 C14 28.38 14 56.76 14 86 C8.06 86 2.12 86 -4 86 C-9.3659621 76.08176677 -14.49681919 66.16653534 -18.94360352 55.80029297 C-21.84855336 49.12162324 -25.22277095 42.72933643 -28.76367188 36.3671875 C-31.02625743 32.22210208 -32.58006926 28.79484557 -33 24 C-33.66 24 -34.32 24 -35 24 C-35 44.46 -35 64.92 -35 86 C-39.62 86 -44.24 86 -49 86 C-49 57.95 -49 29.9 -49 1 C-43.06 1 -37.12 1 -31 1 C-30.32195313 2.36769531 -29.64390625 3.73539063 -28.9453125 5.14453125 C-24.25754184 14.57265839 -19.52468549 23.96293944 -14.5625 33.25 C-11.63014451 38.7497906 -8.89617992 44.19070571 -6.73828125 50.05078125 C-5.92435233 52.29918801 -5.92435233 52.29918801 -4.25 55.5 C-3 58 -3 58 -3 60 C-2.34 60 -1.68 60 -1 60 C-1.00222061 59.26306412 -1.00444122 58.52612823 -1.00672913 57.76686096 C-1.02673203 50.83587231 -1.04197413 43.90488796 -1.05181217 36.97387791 C-1.05703995 33.41022578 -1.06413569 29.84659743 -1.07543945 26.28295898 C-1.08834176 22.18993903 -1.09322906 18.0969442 -1.09765625 14.00390625 C-1.10281754 12.71851456 -1.10797882 11.43312286 -1.11329651 10.10877991 C-1.11337204 8.92763107 -1.11344757 7.74648224 -1.11352539 6.52954102 C-1.115746 5.48363297 -1.11796661 4.43772491 -1.12025452 3.36012268 C-1 1 -1 1 0 0 Z " fill="#E5D9B7" transform="translate(640,672)"/>
<path d="M0 0 C4.62 0 9.24 0 14 0 C14 12.54 14 25.08 14 38 C25.55 38 37.1 38 49 38 C49 25.46 49 12.92 49 0 C53.62 0 58.24 0 63 0 C63 28.38 63 56.76 63 86 C58.38 86 53.76 86 49 86 C48.67 73.79 48.34 61.58 48 49 C37.11 49 26.22 49 15 49 C15.01740234 52.88072266 15.01740234 52.88072266 15.03515625 56.83984375 C15.04294662 59.33520383 15.04902349 61.83056257 15.05493164 64.32592773 C15.05997204 66.06519168 15.0668043 67.80445136 15.07543945 69.54370117 C15.08751792 72.03825937 15.09323108 74.53276173 15.09765625 77.02734375 C15.10281754 77.80963852 15.10797882 78.59193329 15.11329651 79.39793396 C15.11349226 81.26567114 15.06199694 83.13329204 15 85 C14.505 85.495 14.505 85.495 14 86 C9.38 86 4.76 86 0 86 C0 57.62 0 29.24 0 0 Z " fill="#E3D6B5" transform="translate(181,672)"/>
<path d="M0 0 C16.83 0 33.66 0 51 0 C51 3.96 51 7.92 51 12 C38.79 12 26.58 12 14 12 C14.33 12.99 14.66 13.98 15 15 C15.08178114 16.70016844 15.10749501 18.40336297 15.09765625 20.10546875 C15.09515869 20.99129639 15.09266113 21.87712402 15.09008789 22.78979492 C15.08098389 23.9110376 15.07187988 25.03228027 15.0625 26.1875 C15.041875 29.755625 15.02125 33.32375 15 37 C24.9 37 34.8 37 45 37 C45 41.29 45 45.58 45 50 C35.1 50 25.2 50 15 50 C15.03949815 56.7760414 15.03949815 56.7760414 15.09008789 63.55200195 C15.09258545 64.39722412 15.09508301 65.24244629 15.09765625 66.11328125 C15.10289307 66.97735596 15.10812988 67.84143066 15.11352539 68.73168945 C15 71 15 71 14 74 C26.87 74 39.74 74 53 74 C53 77.63 53 81.26 53 85 C52 86 52 86 49.90562439 86.12025452 C48.98407059 86.11803391 48.06251678 86.11581329 47.11303711 86.11352539 C46.05741577 86.11340454 45.00179443 86.11328369 43.91418457 86.11315918 C42.7965271 86.10804321 41.67886963 86.10292725 40.52734375 86.09765625 C39.50612427 86.09664917 38.48490479 86.09564209 37.43273926 86.09460449 C33.60098149 86.08935415 29.76923967 86.07539303 25.9375 86.0625 C17.378125 86.041875 8.81875 86.02125 0 86 C0 57.62 0 29.24 0 0 Z " fill="#E0D4B4" transform="translate(512,672)"/>
<path d="M0 0 C0 55.11 0 110.22 0 167 C-9.43155241 167 -18.17180646 166.72255999 -27.4375 165.5625 C-36.02045099 164.54238064 -44.54481274 163.63961923 -53.1796875 163.2109375 C-56 163 -56 163 -58.3828125 162.5078125 C-61.90266265 161.8248565 -65.42702886 161.67798934 -69 161.5 C-76.3935294 161.13168765 -76.3935294 161.13168765 -79.17675781 160.52734375 C-83.09453708 159.79555516 -87.0117747 159.55756597 -90.984375 159.28125 C-92.74089035 159.15241105 -94.49740063 159.02350278 -96.25390625 158.89453125 C-99.01470701 158.69560354 -101.77560643 158.49818283 -104.53662109 158.30224609 C-107.20700196 158.11160597 -109.87693599 157.91546707 -112.546875 157.71875 C-113.37910583 157.661427 -114.21133667 157.604104 -115.06878662 157.54504395 C-120.88685502 157.11314498 -120.88685502 157.11314498 -122 156 C-122.09641497 154.19039129 -122.12187398 152.37697872 -122.12025452 150.56480408 C-122.12162918 149.38544785 -122.12300385 148.20609161 -122.12442017 146.99099731 C-122.12082489 145.6854892 -122.11722961 144.37998108 -122.11352539 143.03491211 C-122.11324352 141.65547182 -122.11340125 140.27603139 -122.1139679 138.89659119 C-122.11425588 135.14055882 -122.10835905 131.38455811 -122.10139394 127.62853312 C-122.09516051 123.70739955 -122.09455661 119.78626533 -122.09336853 115.86512756 C-122.09025518 108.43488389 -122.08204175 101.00465486 -122.07201904 93.57441765 C-122.06085801 85.11748362 -122.05534748 76.6605489 -122.05032361 68.20360935 C-122.03985914 50.80239775 -122.02225963 33.40120042 -122 16 C-119.96545789 15.68574704 -117.93086027 15.3718535 -115.89624023 15.05810547 C-114.76322983 14.8832663 -113.63021942 14.70842712 -112.46287537 14.52828979 C-89.08479225 10.96177312 -65.63728952 7.74046018 -42.15625 4.9296875 C-41.4164238 4.84100403 -40.6765976 4.75232056 -39.91435242 4.66094971 C-36.33524026 4.23298281 -32.75564451 3.8099024 -29.17504883 3.39453125 C-22.57311799 2.61499163 -16.05921528 1.74128021 -9.55151367 0.37158203 C-6.39852733 -0.08759367 -3.18624625 0 0 0 Z M-17.63671875 5.734375 C-18.92070557 5.89405762 -20.20469238 6.05374023 -21.52758789 6.21826172 C-22.91426127 6.39522589 -24.30089768 6.57247992 -25.6875 6.75 C-26.75966263 6.88538177 -26.75966263 6.88538177 -27.85348511 7.02349854 C-37.10907946 8.19263436 -46.33928609 9.46967035 -55.5625 10.875 C-75.9997884 13.88308574 -96.5088207 16.38410477 -117 19 C-117 63.22 -117 107.44 -117 153 C-94.94124058 155.26198155 -94.94124058 155.26198155 -72.8984375 156.7890625 C-70 157 -70 157 -67.73046875 157.5 C-63.49396079 158.275784 -59.23591102 158.2472396 -54.9375 158.375 C-46.68803836 158.66962363 -38.68604016 159.41092022 -30.57788086 160.98388672 C-21.83301078 162.54096824 -14.34219162 162 -5 162 C-5 110.19 -5 58.38 -5 5 C-9.40034609 5 -13.31034942 5.19377037 -17.63671875 5.734375 Z " fill="#DACFAF" transform="translate(701,179)"/>
<path d="M0 0 C1.32 0 2.64 0 4 0 C4.33 1.98 4.66 3.96 5 6 C6.32 6.33 7.64 6.66 9 7 C9 21.85 9 36.7 9 52 C6.525 52.495 6.525 52.495 4 53 C4 102.5 4 152 4 203 C5.65 203.33 7.3 203.66 9 204 C9 218.85 9 233.7 9 249 C7.35 249.33 5.7 249.66 4 250 C4 297.52 4 345.04 4 394 C5.32 394.33 6.64 394.66 8 395 C9 396 9 396 9.12025452 397.79066467 C9.1169236 398.95981667 9.1169236 398.95981667 9.11352539 400.15258789 C9.11344986 401.03342545 9.11337433 401.914263 9.11329651 402.8217926 C9.10555458 404.25772011 9.10555458 404.25772011 9.09765625 405.72265625 C9.0962413 406.69786728 9.09482635 407.67307831 9.09336853 408.67784119 C9.08775133 411.80609143 9.07519593 414.93427123 9.0625 418.0625 C9.05748722 420.17773334 9.05292393 422.29296781 9.04882812 424.40820312 C9.03777631 429.60549296 9.02102146 434.80274145 9 440 C7.68 440.66 6.36 441.32 5 442 C5 443.32 5 444.64 5 446 C3.35 446 1.7 446 0 446 C0 298.82 0 151.64 0 0 Z " fill="#DDD1B1" transform="translate(735,158)"/>
<path d="M0 0 C2.475 0.495 2.475 0.495 5 1 C5 150.16 5 299.32 5 453 C3.35 452.67 1.7 452.34 0 452 C0 302.84 0 153.68 0 0 Z " fill="#BAB096" transform="translate(724,160)"/>
<path d="M0 0 C5.59097942 4.68326747 8.86171032 9.69098207 10 17 C10.90412788 29.24372142 10.60545012 39.46089859 2.75 49.4375 C-1.81262122 54.19263688 -5.64966266 55.87410854 -12.22265625 56.12109375 C-20.88618971 55.8183096 -20.88618971 55.8183096 -25.0625 52.75 C-26.0215625 51.38875 -26.0215625 51.38875 -27 50 C-27.763125 49.13375 -28.52625 48.2675 -29.3125 47.375 C-31 45 -31 45 -31 42 C-31.66 42 -32.32 42 -33 42 C-35.68438362 36.97483387 -35.36760478 31.79641586 -35.375 26.25 C-35.39949219 25.29867187 -35.42398438 24.34734375 -35.44921875 23.3671875 C-35.48271929 15.2153888 -33.55946294 8.19418758 -27.9375 2.0625 C-27.45152344 1.51722656 -26.96554687 0.97195313 -26.46484375 0.41015625 C-19.41042427 -6.38089824 -7.40559175 -5.75398495 0 0 Z " fill="#292828" transform="translate(980,689)"/>
<path d="M0 0 C5.82173821 3.78149159 10.24637567 8.38455115 13.1484375 14.7421875 C14.00730383 19.24972553 14.03424015 23.60206358 13.9609375 28.1796875 C13.99251953 29.34306641 14.02410156 30.50644531 14.05664062 31.70507812 C14.02253388 40.36331874 11.75701684 45.24609671 6.1484375 51.7421875 C5.40787109 52.68384766 5.40787109 52.68384766 4.65234375 53.64453125 C1.57046479 57.53117385 1.57046479 57.53117385 -0.8515625 58.7421875 C-8.27955103 59.42454865 -15.11039002 59.91850891 -21.2421875 55.21484375 C-28.26696457 48.78683172 -30.67465816 42.60113293 -31.13671875 33.22265625 C-31.40720039 23.48338502 -31.67774724 13.52892739 -25.6015625 5.3671875 C-18.32735013 -1.57637886 -9.69571288 -4.27673911 0 0 Z " fill="#2A2928" transform="translate(879.8515625,686.2578125)"/>
<path d="M0 0 C21.83022907 1.14895942 21.83022907 1.14895942 31.4140625 2.33984375 C33.01125626 2.53037071 33.01125626 2.53037071 34.64071655 2.7247467 C37.96954776 3.12314235 41.29726545 3.53005709 44.625 3.9375 C46.85149248 4.20566013 49.07805484 4.4732407 51.3046875 4.74023438 C55.6002995 5.2560683 59.89552917 5.77490699 64.19042969 6.29663086 C69.12320782 6.89516145 74.05704934 7.48377229 78.9921875 8.0625 C79.99295822 8.17989029 79.99295822 8.17989029 81.01394653 8.2996521 C83.72971155 8.61781965 86.44556379 8.93523776 89.16143799 9.25247192 C93.55038143 9.76550684 97.93882783 10.28247578 102.32666016 10.80493164 C103.80401254 10.98001665 105.28156026 11.15345963 106.75927734 11.32543945 C108.93376791 11.57880791 111.10754597 11.83763767 113.28125 12.09765625 C114.55033203 12.24726807 115.81941406 12.39687988 117.12695312 12.55102539 C120 13 120 13 121 14 C121.09624593 15.72092653 121.12187598 17.44583382 121.12025452 19.16944885 C121.12231651 20.85013458 121.12231651 20.85013458 121.12442017 22.56477356 C121.11902725 24.42485298 121.11902725 24.42485298 121.11352539 26.32250977 C121.11367142 27.61988068 121.11381744 28.91725159 121.1139679 30.25393677 C121.11425586 33.82195929 121.10835932 37.38994848 121.10139394 40.95796323 C121.09516021 44.6829062 121.09455659 48.40784986 121.09336853 52.13279724 C121.09025527 59.19117363 121.08204195 66.2495346 121.07201904 73.30790418 C121.06085774 81.34162971 121.05534741 89.37535596 121.05032361 97.4090873 C121.03985934 113.93940057 121.02226 130.46969832 121 147 C119.56812156 146.85073401 118.13653589 146.69865794 116.70507812 146.54541016 C115.90783325 146.46102692 115.11058838 146.37664368 114.28918457 146.28970337 C111.27157965 145.90781616 108.42845959 145.19240984 105.5 144.375 C104.56160278 144.11722778 104.56160278 144.11722778 103.60424805 143.85424805 C99.64171494 142.76024536 95.69067626 141.62605969 91.73828125 140.49609375 C79.31409148 136.95878953 66.85104167 133.66474434 54.3125 130.5625 C42.55804358 127.65399457 30.82489783 124.6838963 19.125 121.5625 C17.88403564 121.23258057 16.64307129 120.90266113 15.36450195 120.56274414 C10.17412849 119.17061326 5.10422592 117.70140864 0 116 C0 77.72 0 39.44 0 0 Z M4 5 C4 40.31 4 75.62 4 112 C9.30096412 113.76698804 14.40432888 115.44882745 19.7734375 116.8671875 C21.01222656 117.19589844 22.25101563 117.52460937 23.52734375 117.86328125 C24.79707031 118.19714844 26.06679688 118.53101563 27.375 118.875 C28.60605469 119.20113281 29.83710937 119.52726563 31.10546875 119.86328125 C36.51462027 121.29495163 41.92534671 122.72030819 47.33959961 124.13256836 C56.29177497 126.47165456 65.22416772 128.87427749 74.14453125 131.33203125 C76.24280737 131.90831663 78.34111484 132.48448789 80.43945312 133.06054688 C83.65513748 133.94335655 86.87009544 134.82848846 90.08325195 135.72045898 C93.24762462 136.59801399 96.41452014 137.46588328 99.58203125 138.33203125 C100.54140091 138.60070511 101.50077057 138.86937897 102.48921204 139.14619446 C103.3884288 139.39032578 104.28764557 139.63445709 105.21411133 139.88598633 C105.99619461 140.10184891 106.77827789 140.31771149 107.58406067 140.54011536 C110.57247382 141.18699664 110.57247382 141.18699664 116 141 C116 100.41 116 59.82 116 18 C108.33536352 16.4670727 101.71601288 15.65098953 94.02734375 15.34375 C91.24371495 15.1710668 88.975837 14.75662015 86.21313477 14.10009766 C79.4112973 12.55092656 72.48249314 11.86006428 65.5625 11.0546875 C64.07231707 10.87843695 62.58216459 10.70192875 61.09204102 10.525177 C57.9826088 10.1574527 54.87280386 9.79311034 51.76269531 9.43115234 C47.79802947 8.96942536 43.83447819 8.49880927 39.87117004 8.02558708 C36.79849647 7.65979083 33.7252537 7.29896988 30.65182495 6.93957901 C29.1909646 6.76812034 27.73028582 6.5951065 26.26980591 6.42043686 C24.22079207 6.17609398 22.17109212 5.93855818 20.12109375 5.70263672 C18.37977173 5.49850662 18.37977173 5.49850662 16.60327148 5.29025269 C12.41463451 4.95284732 8.20220443 5 4 5 Z " fill="#D6CAAB" transform="translate(580,403)"/>
<path d="M0 0 C13.41742752 0.35779807 22.98178057 1.94246024 32.92578125 11.60546875 C39.28631788 18.94823514 38.80386864 28.76436282 38.21582031 38.02929688 C37.43285528 45.17872419 34.06408914 51.05100379 29 56 C21 61 21 61 2 63 C2 42.87 2 22.74 2 2 C1.34 2 0.68 2 0 2 C0 1.34 0 0.68 0 0 Z " fill="#282828" transform="translate(433,683)"/>
<path d="M0 0 C14.52099289 0 21.83176493 0.68362359 31.92578125 10.4765625 C38.92527703 18.99195661 37.55107507 31.57196415 37 42 C36 45 36 45 34 46 C33.484375 47.051875 32.96875 48.10375 32.4375 49.1875 C29.25172876 54.96468217 23.71209821 57.90472957 17.75 60.3125 C12.2303967 61.32442727 6.59506765 61.56961018 1 62 C0.67 41.54 0.34 21.08 0 0 Z " fill="#2B2A29" transform="translate(343,684)"/>
<path d="M0 0 C14.625 0 14.625 0 22 3 C22 3.66 22 4.32 22 5 C22.53625 5.061875 23.0725 5.12375 23.625 5.1875 C28.84251396 6.97243899 31.99039453 10.27968463 34.375 15.125 C36.21058876 20.23239131 36.3884759 25.19175301 36.4375 30.5625 C36.44765137 31.35350098 36.45780273 32.14450195 36.46826172 32.95947266 C36.38304887 38.752746 35.10698221 43.61816543 33 49 C32.34 49 31.68 49 31 49 C30.79375 49.556875 30.5875 50.11375 30.375 50.6875 C27.66782494 55.24047624 23.86325412 57.89345047 19 59.75 C14 61 14 61 0 62 C0 41.54 0 21.08 0 0 Z " fill="#292928" transform="translate(760,684)"/>
<path d="M0 0 C10.56 0 21.12 0 32 0 C32 3.63 32 7.26 32 11 C29.03 11 26.06 11 23 11 C23 31.79 23 52.58 23 74 C25.97 74 28.94 74 32 74 C32 77.3 32 80.6 32 84 C21.77 84 11.54 84 1 84 C1 81.03 1 78.06 1 75 C3.64 75 6.28 75 9 75 C8.99777939 74.2277005 8.99555878 73.455401 8.99327087 72.65969849 C8.97325496 65.3905466 8.95801921 58.12140802 8.94818783 50.85223579 C8.94296356 47.1148575 8.93587416 43.37750193 8.92456055 39.64013672 C8.9137155 36.03510184 8.90771972 32.43008884 8.90512276 28.82503891 C8.90327143 27.44789154 8.8996564 26.07074541 8.89426994 24.69360733 C8.88703819 22.76856906 8.88659176 20.84350888 8.88647461 18.91845703 C8.884254 17.82147491 8.88203339 16.7244928 8.87974548 15.5942688 C9 13 9 13 10 11 C6.7 11 3.4 11 0 11 C0 7.37 0 3.74 0 0 Z " fill="#E6DAB8" transform="translate(271,673)"/>
<path d="M0 0 C4.8370512 2.20283167 7.70702683 4.98413197 10.74609375 9.3125 C12.78568341 15.43126897 13.09336786 22.3061198 10.4296875 28.25 C6.96103412 33.46461984 3.59507833 37.01468463 -2.25390625 39.3125 C-7.64921032 39.99917506 -12.6058992 39.16703362 -17.25390625 36.3125 C-20.5069977 32.99724756 -23.25390625 30.0709885 -23.25390625 25.3125 C-23.91390625 25.3125 -24.57390625 25.3125 -25.25390625 25.3125 C-25.65619358 18.17562478 -25.82226713 10.41061754 -20.859375 4.7109375 C-14.59773979 -0.71052893 -8.03141345 -2.44978989 0 0 Z " fill="#2C2B2A" transform="translate(455.25390625,789.6875)"/>
<path d="M0 0 C0 55.11 0 110.22 0 167 C-4.62 167 -9.24 167 -14 167 C-14 166.67 -14 166.34 -14 166 C-9.71 166 -5.42 166 -1 166 C-1 111.55 -1 57.1 -1 1 C-5.455 1.495 -5.455 1.495 -10 2 C-10 2.66 -10 3.32 -10 4 C-8.35 4 -6.7 4 -5 4 C-5 4.33 -5 4.66 -5 5 C-27.88133507 8.24094902 -50.7677117 11.41042993 -73.69580078 14.30419922 C-75.26335775 14.50218841 -76.83090359 14.70026579 -78.3984375 14.8984375 C-79.1459024 14.99293182 -79.89336731 15.08742615 -80.66348267 15.18478394 C-87.94001017 16.10999345 -95.20688038 17.10846523 -102.4621582 18.18823242 C-103.60817505 18.35222534 -103.60817505 18.35222534 -104.77734375 18.51953125 C-105.72468384 18.66032104 -105.72468384 18.66032104 -106.69116211 18.80395508 C-110.1157396 19.09473817 -113.56309939 19 -117 19 C-117 62.89 -117 106.78 -117 152 C-117.33 152 -117.66 152 -118 152 C-118 108.44 -118 64.88 -118 20 C-118.66 20 -119.32 20 -120 20 C-120 64.55 -120 109.1 -120 155 C-111.75 155.66 -103.5 156.32 -95 157 C-93.35 157.33 -91.7 157.66 -90 158 C-90 158.33 -90 158.66 -90 159 C-93.29187776 158.85871184 -96.5834452 158.71110793 -99.875 158.5625 C-100.7928125 158.52318359 -101.710625 158.48386719 -102.65625 158.44335938 C-120.36736047 157.63263953 -120.36736047 157.63263953 -122 156 C-122.09641497 154.19039129 -122.12187398 152.37697872 -122.12025452 150.56480408 C-122.12162918 149.38544785 -122.12300385 148.20609161 -122.12442017 146.99099731 C-122.12082489 145.6854892 -122.11722961 144.37998108 -122.11352539 143.03491211 C-122.11324352 141.65547182 -122.11340125 140.27603139 -122.1139679 138.89659119 C-122.11425588 135.14055882 -122.10835905 131.38455811 -122.10139394 127.62853312 C-122.09516051 123.70739955 -122.09455661 119.78626533 -122.09336853 115.86512756 C-122.09025518 108.43488389 -122.08204175 101.00465486 -122.07201904 93.57441765 C-122.06085801 85.11748362 -122.05534748 76.6605489 -122.05032361 68.20360935 C-122.03985914 50.80239775 -122.02225963 33.40120042 -122 16 C-119.96545789 15.68574704 -117.93086027 15.3718535 -115.89624023 15.05810547 C-114.76322983 14.8832663 -113.63021942 14.70842712 -112.46287537 14.52828979 C-89.08479225 10.96177312 -65.63728952 7.74046018 -42.15625 4.9296875 C-41.4164238 4.84100403 -40.6765976 4.75232056 -39.91435242 4.66094971 C-36.33524026 4.23298281 -32.75564451 3.8099024 -29.17504883 3.39453125 C-22.57311799 2.61499163 -16.05921528 1.74128021 -9.55151367 0.37158203 C-6.39852733 -0.08759367 -3.18624625 0 0 0 Z " fill="#B8AE94" transform="translate(701,179)"/>
<path d="M0 0 C3.37453898 -0.14611313 6.74825766 -0.23433467 10.125 -0.3125 C11.07632813 -0.35439453 12.02765625 -0.39628906 13.0078125 -0.43945312 C20.97003715 -0.57768619 20.97003715 -0.57768619 24.64453125 2.23828125 C27.02468516 5.02894263 27.77001456 5.92823428 27.5625 9.5 C27.2420989 13.43635637 26.87777535 16.12222465 24 19 C20.72521094 20.30253285 17.41969771 21.17208105 14 22 C14.45439453 22.40839111 14.90878906 22.81678223 15.37695312 23.23754883 C17.42572372 25.08748361 19.46288939 26.9497367 21.5 28.8125 C22.21542969 29.45509766 22.93085937 30.09769531 23.66796875 30.75976562 C24.68310547 31.69272461 24.68310547 31.69272461 25.71875 32.64453125 C26.34716797 33.21534424 26.97558594 33.78615723 27.62304688 34.37426758 C29 36 29 36 29 39 C23.96591331 38.61848881 21.27280697 35.92870715 17.8125 32.5625 C17.27947266 32.05912109 16.74644531 31.55574219 16.19726562 31.03710938 C14.10263998 29.0531432 12.04001903 27.04001903 10 25 C10 23.68 10 22.36 10 21 C8.68 21.33 7.36 21.66 6 22 C5.67 27.61 5.34 33.22 5 39 C3.02 39.495 3.02 39.495 1 40 C0 39 0 39 -0.11352539 35.30639648 C-0.11336624 33.66128708 -0.10766988 32.01617269 -0.09765625 30.37109375 C-0.0962413 29.50686295 -0.09482635 28.64263214 -0.09336853 27.75221252 C-0.08775239 24.98060708 -0.07519719 22.2090812 -0.0625 19.4375 C-0.05748708 17.5631522 -0.05292381 15.68880315 -0.04882812 13.81445312 C-0.03777772 9.20960456 -0.0205023 4.60481579 0 0 Z " fill="#353431" transform="translate(869,789)"/>
<path d="M0 0 C3.18700673 -0.14660682 6.37313501 -0.23449317 9.5625 -0.3125 C10.45775391 -0.35439453 11.35300781 -0.39628906 12.27539062 -0.43945312 C18.86411837 -0.56012579 22.08518626 0.55575354 27 5 C29.21162306 9.32708859 30.03525681 14.20747496 29 19 C27.16601991 22.43573542 25.0686016 26.33876234 21.19140625 27.578125 C18.85046309 28.02878785 16.61573098 28.20955053 14.234375 28.31640625 C13.34492187 28.35830078 12.45546875 28.40019531 11.5390625 28.44335938 C10.61867188 28.48267578 9.69828125 28.52199219 8.75 28.5625 C7.81414062 28.60568359 6.87828125 28.64886719 5.9140625 28.69335938 C3.60951359 28.7991805 1.30486161 28.90126557 -1 29 C-0.83701416 28.46084961 -0.67402832 27.92169922 -0.50610352 27.36621094 C0.09281664 24.56604976 0.11226789 22.00450567 0.09765625 19.140625 C0.09443359 18.02558594 0.09121094 16.91054688 0.08789062 15.76171875 C0.07951172 14.60285156 0.07113281 13.44398438 0.0625 12.25 C0.05798828 11.07566406 0.05347656 9.90132812 0.04882812 8.69140625 C0.03705094 5.79421928 0.02060326 2.89713546 0 0 Z " fill="#2D2D2B" transform="translate(1044,684)"/>
<path d="M0 0 C4.8370512 2.20283167 7.70702683 4.98413197 10.74609375 9.3125 C12.78568341 15.43126897 13.09336786 22.3061198 10.4296875 28.25 C6.96103412 33.46461984 3.59507833 37.01468463 -2.25390625 39.3125 C-7.64921032 39.99917506 -12.6058992 39.16703362 -17.25390625 36.3125 C-20.5069977 32.99724756 -23.25390625 30.0709885 -23.25390625 25.3125 C-23.91390625 25.3125 -24.57390625 25.3125 -25.25390625 25.3125 C-25.65619358 18.17562478 -25.82226713 10.41061754 -20.859375 4.7109375 C-14.59773979 -0.71052893 -8.03141345 -2.44978989 0 0 Z M-19.07421875 9.14453125 C-21.76484224 14.08922011 -21.09976091 19.91782697 -20.25390625 25.3125 C-18.75023344 28.92721151 -16.77374413 31.40122143 -13.3515625 33.453125 C-9.64088792 34.97332688 -6.17544636 35.07044473 -2.25390625 34.3125 C1.69214359 32.12350389 4.27552305 29.75558349 5.68359375 25.4375 C5.70421875 24.73625 5.72484375 24.035 5.74609375 23.3125 C6.40609375 23.3125 7.06609375 23.3125 7.74609375 23.3125 C8.19136855 17.8578837 8.15170459 13.49041576 5.078125 8.8203125 C1.9388822 5.26680013 -1.6379641 3.50641306 -6.37890625 2.9375 C-11.52561504 3.60880984 -15.47496214 5.36810916 -19.07421875 9.14453125 Z " fill="#D5CAAA" transform="translate(455.25390625,789.6875)"/>
<path d="M0 0 C8.58 0 17.16 0 26 0 C26 1.32 26 2.64 26 4 C19.07 4 12.14 4 5 4 C5 7.96 5 11.92 5 16 C10.94 16 16.88 16 23 16 C22.67 17.65 22.34 19.3 22 21 C16.72 21 11.44 21 6 21 C5.67 25.62 5.34 30.24 5 35 C11.93 35 18.86 35 26 35 C26.33 36.32 26.66 37.64 27 39 C25.25454395 40.74545605 22.83875783 40.1302316 20.46875 40.1328125 C19.34855469 40.13410156 18.22835937 40.13539063 17.07421875 40.13671875 C15.89472656 40.13285156 14.71523438 40.12898437 13.5 40.125 C11.73076172 40.13080078 11.73076172 40.13080078 9.92578125 40.13671875 C8.24548828 40.13478516 8.24548828 40.13478516 6.53125 40.1328125 C5.49548828 40.13168457 4.45972656 40.13055664 3.39257812 40.12939453 C1 40 1 40 0 39 C-0.08865208 36.1156618 -0.11521296 33.25537842 -0.09765625 30.37109375 C-0.0962413 29.50686295 -0.09482635 28.64263214 -0.09336853 27.75221252 C-0.08775239 24.98060708 -0.07519719 22.2090812 -0.0625 19.4375 C-0.05748708 17.5631522 -0.05292381 15.68880315 -0.04882812 13.81445312 C-0.03862681 9.20957979 -0.01905467 4.6048794 0 0 Z " fill="#767162" transform="translate(934,789)"/>
<path d="M0 0 C8.58 0 17.16 0 26 0 C26 1.32 26 2.64 26 4 C22.70835171 4.02895225 19.41673601 4.0467823 16.125 4.0625 C15.18785156 4.07087891 14.25070312 4.07925781 13.28515625 4.08789062 C11.94130859 4.09272461 11.94130859 4.09272461 10.5703125 4.09765625 C9.32918701 4.10551147 9.32918701 4.10551147 8.06298828 4.11352539 C6 4 6 4 4 3 C4 7.62 4 12.24 4 17 C4.66 16.67 5.32 16.34 6 16 C8.71760108 15.92818179 11.40859388 15.90700494 14.125 15.9375 C14.87910156 15.94201172 15.63320313 15.94652344 16.41015625 15.95117188 C18.27347127 15.96296501 20.13674555 15.98090058 22 16 C22.5625 17.9375 22.5625 17.9375 23 20 C22 21 22 21 18.40234375 21.09765625 C16.91403133 21.0909822 15.42573568 21.07902183 13.9375 21.0625 C13.17888672 21.05798828 12.42027344 21.05347656 11.63867188 21.04882812 C9.75908129 21.0370068 7.87953101 21.01907078 6 21 C5.67 25.62 5.34 30.24 5 35 C11.93 35 18.86 35 26 35 C26 36.65 26 38.3 26 40 C21.85418113 40.02886751 17.70838784 40.04675327 13.5625 40.0625 C11.78649414 40.07506836 11.78649414 40.07506836 9.97460938 40.08789062 C8.84990234 40.09111328 7.72519531 40.09433594 6.56640625 40.09765625 C5.00321655 40.10551147 5.00321655 40.10551147 3.40844727 40.11352539 C1 40 1 40 0 39 C-0.08865208 36.1156618 -0.11521296 33.25537842 -0.09765625 30.37109375 C-0.0962413 29.50686295 -0.09482635 28.64263214 -0.09336853 27.75221252 C-0.08775239 24.98060708 -0.07519719 22.2090812 -0.0625 19.4375 C-0.05748708 17.5631522 -0.05292381 15.68880315 -0.04882812 13.81445312 C-0.03862681 9.20957979 -0.01905467 4.6048794 0 0 Z " fill="#A69D85" transform="translate(806,789)"/>
<path d="M0 0 C1.43653931 -0.00472824 1.43653931 -0.00472824 2.90209961 -0.009552 C3.94374268 -0.00752777 4.98538574 -0.00550354 6.05859375 -0.00341797 C7.12021729 -0.00437469 8.18184082 -0.00533142 9.27563477 -0.00631714 C11.52522847 -0.00699911 13.77482412 -0.00514366 16.02441406 -0.00097656 C19.48116446 0.00437143 22.93778492 -0.00092101 26.39453125 -0.00732422 C28.57421904 -0.00666344 30.75390675 -0.00538228 32.93359375 -0.00341797 C34.49605835 -0.00645432 34.49605835 -0.00645432 36.09008789 -0.009552 C37.04778076 -0.00639984 38.00547363 -0.00324768 38.9921875 0 C39.83966553 0.00079559 40.68714355 0.00159119 41.56030273 0.00241089 C43.49609375 0.12939453 43.49609375 0.12939453 44.49609375 1.12939453 C44.62109375 4.62939453 44.62109375 4.62939453 44.49609375 8.12939453 C43.49609375 9.12939453 43.49609375 9.12939453 41.51560974 9.24964905 C40.64735062 9.24742844 39.77909149 9.24520782 38.88452148 9.24291992 C37.90358017 9.24284439 36.92263885 9.24276886 35.91197205 9.24269104 C34.84531815 9.23752975 33.77866425 9.23236847 32.6796875 9.22705078 C31.05040062 9.22492836 31.05040062 9.22492836 29.38819885 9.22276306 C25.903303 9.21714501 22.41847033 9.20458946 18.93359375 9.19189453 C16.57747488 9.18688186 14.22135501 9.18231855 11.86523438 9.17822266 C6.07549911 9.16716972 0.28580094 9.15041404 -5.50390625 9.12939453 C-5.6015625 2.97705078 -5.6015625 2.97705078 -5.50390625 1.12939453 C-3.90338961 -0.47112211 -2.21544503 0.00207981 0 0 Z " fill="#EADDBB" transform="translate(680.50390625,755.87060546875)"/>
<path d="M0 0 C1.81811523 0.14013672 1.81811523 0.14013672 4 1 C5.50805664 3.48095703 5.50805664 3.48095703 6.91015625 6.7578125 C7.42513672 7.94117188 7.94011719 9.12453125 8.47070312 10.34375 C9.00164509 11.60402222 9.53224134 12.86444013 10.0625 14.125 C10.59563888 15.36256867 11.13013017 16.59955566 11.66601562 17.8359375 C12.68266627 20.19324038 13.69125682 22.5540403 14.69067383 24.91870117 C15.72663074 27.35666727 16.79849222 29.77075701 17.890625 32.18359375 C19.12449422 35.31605751 19.05293063 36.84120812 18 40 C15 39 15 39 13.89453125 37.1640625 C13.53746094 36.32617188 13.18039062 35.48828125 12.8125 34.625 C12.39226563 33.65175781 11.97203125 32.67851563 11.5390625 31.67578125 C11.03117188 30.46277344 10.52328125 29.24976563 10 28 C9.29994816 26.3474575 8.59939179 24.69512867 7.8984375 23.04296875 C5.91929701 18.36738603 3.9554105 13.68555129 2 9 C1.18247697 10.58074564 0.37118003 12.16471223 -0.4375 13.75 C-1.11619141 15.07257812 -1.11619141 15.07257812 -1.80859375 16.421875 C-3.17346553 19.1645798 -3.17346553 19.1645798 -4 23 C-0.37 23 3.26 23 7 23 C7.33 24.32 7.66 25.64 8 27 C6.04174127 27.02694851 4.08337774 27.04637218 2.125 27.0625 C0.48917969 27.07990234 0.48917969 27.07990234 -1.1796875 27.09765625 C-4 27 -4 27 -6 26 C-7.98 30.62 -9.96 35.24 -12 40 C-13.32 39.67 -14.64 39.34 -16 39 C-15.08159919 32.20244252 -12.46344437 26.4397576 -9.75 20.1875 C-9.27175781 19.03056641 -8.79351563 17.87363281 -8.30078125 16.68164062 C-7.82511719 15.58400391 -7.34945312 14.48636719 -6.859375 13.35546875 C-6.21693848 11.84956177 -6.21693848 11.84956177 -5.56152344 10.31323242 C-4 8 -4 8 -1.32128906 7.1652832 C-0.55526367 7.11073975 0.21076172 7.05619629 1 7 C0.67 4.69 0.34 2.38 0 0 Z " fill="#D4C9A8" transform="translate(581,789)"/>
<path d="M0 0 C0 1.32 0 2.64 0 4 C-0.78503906 3.89300781 -1.57007813 3.78601563 -2.37890625 3.67578125 C-8.85571532 2.93670979 -13.40530569 2.42891853 -19 6 C-22.78956578 10.16852236 -23 15.57017364 -23 21 C-22.67969849 23.73257229 -22.12720318 25.4235356 -21 28 C-19.13252737 29.39238047 -19.13252737 29.39238047 -17 30 C-16.01 30.66 -15.02 31.32 -14 32 C-8.15928602 32.61804616 -8.15928602 32.61804616 -3.125 30 C-2.42375 29.34 -1.7225 28.68 -1 28 C-0.34 28 0.32 28 1 28 C1 24.37 1 20.74 1 17 C2.32 17 3.64 17 5 17 C5.41105226 22.67480478 5.66774481 27.66521646 2.38671875 32.5234375 C-0.8609647 35.98153424 -4.56623688 37.8352783 -9.30859375 38.15625 C-14.4814989 37.80731879 -18.01695292 36.4399043 -22 33 C-27.12042528 26.90822033 -28.41509622 22.04958234 -28.34765625 14.08203125 C-27.67750592 8.14103567 -24.65410236 4.57341444 -20.4375 0.5625 C-14.47863167 -3.25728739 -6.23167131 -3.21634648 0 0 Z " fill="#D3C8A8" transform="translate(528,791)"/>
<path d="M0 0 C1.63134766 1.1015625 1.63134766 1.1015625 3 3 C3.38818359 6.046875 3.38818359 6.046875 3.3984375 9.75 C3.40274277 10.73178223 3.40274277 10.73178223 3.40713501 11.73339844 C3.40917368 13.11524319 3.40365746 14.49711693 3.39111328 15.87890625 C3.37505436 17.9928445 3.39096601 20.10487113 3.41015625 22.21875 C3.40817378 23.56250422 3.40433002 24.90625724 3.3984375 26.25 C3.39505371 27.47203125 3.39166992 28.6940625 3.38818359 29.953125 C3 33 3 33 1.66650391 34.8984375 C-0.93411041 36.61744889 -2.97664253 36.38596053 -6 36 C-9.19124845 31.21312732 -8.33326278 25.71828759 -8.31567383 20.12109375 C-8.31251091 18.0072895 -8.33599013 15.89488154 -8.36132812 13.78125 C-8.36360095 12.43750176 -8.36430469 11.09374977 -8.36328125 9.75 C-8.36626221 8.52796875 -8.36924316 7.3059375 -8.37231445 6.046875 C-8 3 -8 3 -6.63354492 1.1015625 C-4.28525069 -0.4819831 -2.76907219 -0.41536083 0 0 Z " fill="#E4D7B6" transform="translate(581,350)"/>
<path d="M0 0 C15.00151961 -0.85886563 15.00151961 -0.85886563 18.9375 1.9375 C21.74269596 6.10279098 21.84137569 9.12887758 21 14 C20.125 16.875 20.125 16.875 18 19 C14.72521094 20.30253285 11.41969771 21.17208105 8 22 C8.45439453 22.40839111 8.90878906 22.81678223 9.37695312 23.23754883 C11.42572372 25.08748361 13.46288939 26.9497367 15.5 28.8125 C16.21542969 29.45509766 16.93085937 30.09769531 17.66796875 30.75976562 C18.68310547 31.69272461 18.68310547 31.69272461 19.71875 32.64453125 C20.34716797 33.21534424 20.97558594 33.78615723 21.62304688 34.37426758 C23 36 23 36 23 39 C17.96591331 38.61848881 15.27280697 35.92870715 11.8125 32.5625 C11.27947266 32.05912109 10.74644531 31.55574219 10.19726562 31.03710938 C8.10263998 29.0531432 6.04001903 27.04001903 4 25 C4 23.68 4 22.36 4 21 C2.68 20.67 1.36 20.34 0 20 C0.33 18.68 0.66 17.36 1 16 C1.91523437 15.95101562 2.83046875 15.90203125 3.7734375 15.8515625 C4.96195313 15.77679687 6.15046875 15.70203125 7.375 15.625 C8.55835938 15.55539062 9.74171875 15.48578125 10.9609375 15.4140625 C14.10562319 15.29782654 14.10562319 15.29782654 16 13 C16.41666667 10 16.41666667 10 16 7 C12.47844036 4.65229357 10.49228157 4.62330386 6.3125 4.375 C5.13300781 4.30023437 3.95351563 4.22546875 2.73828125 4.1484375 C1.83464844 4.09945312 0.93101562 4.05046875 0 4 C0 2.68 0 1.36 0 0 Z " fill="#D7CBAB" transform="translate(875,789)"/>
<path d="M0 0 C2.475 0.495 2.475 0.495 5 1 C5 13.54 5 26.08 5 39 C3.02 39.495 3.02 39.495 1 40 C0 39 0 39 -0.11352539 37.14233398 C-0.10828857 36.35157471 -0.10305176 35.56081543 -0.09765625 34.74609375 C-0.09515869 33.9770874 -0.09266113 33.20808105 -0.09008789 32.41577148 C-0.08098389 31.43294189 -0.07187988 30.4501123 -0.0625 29.4375 C-0.041875 26.323125 -0.02125 23.20875 0 20 C-6.27 20 -12.54 20 -19 20 C-18.67 18.68 -18.34 17.36 -18 16 C-12.06 16 -6.12 16 0 16 C0 10.72 0 5.44 0 0 Z " fill="#D0C5A5" transform="translate(764,789)"/>
<path d="M0 0 C4.62 0 9.24 0 14 0 C14 28.38 14 56.76 14 86 C8.06 86 2.12 86 -4 86 C-4 85.67 -4 85.34 -4 85 C1.61 85 7.22 85 13 85 C13 57.61 13 30.22 13 2 C9.04 2 5.08 2 1 2 C1 23.78 1 45.56 1 68 C0.34 68 -0.32 68 -1 68 C-2.16333037 60.75644197 -2.05448101 53.66956716 -1.9140625 46.34765625 C-1.89282318 45.05178085 -1.87158386 43.75590546 -1.84970093 42.42076111 C-1.80448269 39.69506144 -1.755281 36.96947198 -1.703125 34.24389648 C-1.63644056 30.74455123 -1.57934508 27.24512582 -1.52509499 23.74556828 C-1.4721255 20.40450719 -1.41156357 17.06359859 -1.3515625 13.72265625 C-1.33171295 12.46236099 -1.3118634 11.20206573 -1.29141235 9.90357971 C-1.26823944 8.74825241 -1.24506653 7.59292511 -1.22119141 6.40258789 C-1.20263092 5.38080948 -1.18407043 4.35903107 -1.16494751 3.30628967 C-1 1 -1 1 0 0 Z " fill="#A49B85" transform="translate(640,672)"/>
<path d="M0 0 C4.62 0 9.24 0 14 0 C14.33 13.2 14.66 26.4 15 40 C14.01 40 13.02 40 12 40 C12.33 27.46 12.66 14.92 13 2 C9.37 2 5.74 2 2 2 C2 29.39 2 56.78 2 85 C5.96 85 9.92 85 14 85 C14 85.33 14 85.66 14 86 C9.38 86 4.76 86 0 86 C0 57.62 0 29.24 0 0 Z " fill="#BCB297" transform="translate(181,672)"/>
<path d="M0 0 C2.96259971 1.53908105 5.08853998 3.25343608 7 6 C7.4375 9.375 7.4375 9.375 7 12 C5.1875 11.8125 5.1875 11.8125 3 11 C1.375 8.5 1.375 8.5 0 6 C-2.86120256 4.56939872 -4.84010585 4.61307419 -8 5 C-9.9354148 7.39056942 -9.9354148 7.39056942 -11 10 C-7.99745401 14.91325708 -4.54858532 16.26478564 0.66015625 18.10546875 C3 19 3 19 6 21 C6 22.32 6 23.64 6 25 C-0.57801167 23.82535506 -6.5545683 21.69683016 -12.0625 17.875 C-14.84873542 13.74058615 -15.51110603 9.94880444 -15 5 C-11.56386824 -0.9243651 -6.27358835 -1.37356515 0 0 Z " fill="#DDD1AF" transform="translate(328,789)"/>
<path d="M0 0 C0.33 0 0.66 0 1 0 C1 7.26 1 14.52 1 22 C10.9 22 20.8 22 31 22 C31 26.29 31 30.58 31 35 C21.1 35 11.2 35 1 35 C1.03949815 41.7760414 1.03949815 41.7760414 1.09008789 48.55200195 C1.09258545 49.39722412 1.09508301 50.24244629 1.09765625 51.11328125 C1.10289307 51.97735596 1.10812988 52.84143066 1.11352539 53.73168945 C1 56 1 56 0 59 C12.87 59 25.74 59 39 59 C39 62.63 39 66.26 39 70 C38.67 70 38.34 70 38 70 C38 66.7 38 63.4 38 60 C24.47 60.33 10.94 60.66 -3 61 C-2.67 60.01 -2.34 59.02 -2 58 C-1.86260826 56.16681177 -1.77535202 54.32964547 -1.71875 52.4921875 C-1.68136719 51.42355469 -1.64398437 50.35492187 -1.60546875 49.25390625 C-1.53491263 46.99349717 -1.4646018 44.73308043 -1.39453125 42.47265625 C-1.35714844 41.40660156 -1.31976562 40.34054687 -1.28125 39.2421875 C-1.25095703 38.2610498 -1.22066406 37.27991211 -1.18945312 36.26904297 C-1 34 -1 34 0 33 C2.21855264 32.91216458 4.43988496 32.89305391 6.66015625 32.90234375 C7.65685585 32.90446617 7.65685585 32.90446617 8.6736908 32.90663147 C10.80333899 32.91224482 12.93288339 32.92479946 15.0625 32.9375 C16.50325369 32.94251329 17.94400903 32.94707649 19.38476562 32.95117188 C22.92321102 32.96221855 26.46159539 32.97949208 30 33 C30 29.7 30 26.4 30 23 C20.1 23 10.2 23 0 23 C0 15.41 0 7.82 0 0 Z " fill="#888170" transform="translate(526,687)"/>
<path d="M0 0 C0.33 0 0.66 0 1 0 C1.02578125 0.79664063 1.0515625 1.59328125 1.078125 2.4140625 C1.51152995 11.00128771 1.51152995 11.00128771 6 18 C10.21171699 20.53409387 14.19952433 20.81533209 19 20 C22.54363883 18.18697548 24.62018147 15.77690154 26.375 12.1875 C26.684375 11.1046875 26.684375 11.1046875 27 10 C28.5625 11.1875 28.5625 11.1875 30 13 C30 16.57176089 29.08357659 17.90249398 26.75 20.625 C23.03338705 23.8348021 20.64919574 25.8132986 15.6875 26.375 C10.34638168 25.83183542 6.0288093 25.06757636 2.16015625 21.125 C-2 15.8 -2 15.8 -2 12 C-2.66 12 -3.32 12 -4 12 C-4 8.7 -4 5.4 -4 2 C-3.67 2 -3.34 2 -3 2 C-2.67 3.65 -2.34 5.3 -2 7 C-1.34 4.69 -0.68 2.38 0 0 Z " fill="#CBC0A2" transform="translate(434,803)"/>
<path d="M0 0 C1.32 0 2.64 0 4 0 C5.36523438 1.36669922 5.36523438 1.36669922 6.59375 3.3046875 C7.06143799 4.0251123 7.52912598 4.74553711 8.01098633 5.48779297 C8.7480481 6.66946045 8.7480481 6.66946045 9.5 7.875 C10.55509603 9.52140631 11.61111399 11.16722209 12.66796875 12.8125 C13.21114746 13.66585937 13.75432617 14.51921875 14.31396484 15.3984375 C15.99233905 17.9881791 17.726634 20.52880627 19.48828125 23.0625 C20.04515625 23.86961426 20.60203125 24.67672852 21.17578125 25.50830078 C22.2520444 27.06457987 23.33647813 28.61524567 24.4296875 30.15966797 C24.91308594 30.86752441 25.39648438 31.57538086 25.89453125 32.3046875 C26.32612549 32.92327637 26.75771973 33.54186523 27.20239258 34.17919922 C28.21797582 36.49760137 27.83448101 37.66267901 27 40 C23.10488054 38.50183585 21.5986545 36.36052299 19.35546875 32.90625 C18.33936523 31.359375 18.33936523 31.359375 17.30273438 29.78125 C16.25569336 28.15703125 16.25569336 28.15703125 15.1875 26.5 C13.80710403 24.38468899 12.42560348 22.27009837 11.04296875 20.15625 C10.37313965 19.12371094 9.70331055 18.09117187 9.01318359 17.02734375 C6.54065558 13.30925652 3.91957998 9.71239279 1.2434082 6.13867188 C0 4 0 4 0 0 Z " fill="#D9CEAC" transform="translate(635,789)"/>
<path d="M0 0 C1.43653931 -0.00472824 1.43653931 -0.00472824 2.90209961 -0.009552 C3.94374268 -0.00752777 4.98538574 -0.00550354 6.05859375 -0.00341797 C7.12021729 -0.00437469 8.18184082 -0.00533142 9.27563477 -0.00631714 C11.52522847 -0.00699911 13.77482412 -0.00514366 16.02441406 -0.00097656 C19.48116446 0.00437143 22.93778492 -0.00092101 26.39453125 -0.00732422 C28.57421904 -0.00666344 30.75390675 -0.00538228 32.93359375 -0.00341797 C34.49605835 -0.00645432 34.49605835 -0.00645432 36.09008789 -0.009552 C37.04778076 -0.00639984 38.00547363 -0.00324768 38.9921875 0 C39.83966553 0.00079559 40.68714355 0.00159119 41.56030273 0.00241089 C43.49609375 0.12939453 43.49609375 0.12939453 44.49609375 1.12939453 C44.62109375 4.62939453 44.62109375 4.62939453 44.49609375 8.12939453 C43.49609375 9.12939453 43.49609375 9.12939453 41.51560974 9.24964905 C40.64735062 9.24742844 39.77909149 9.24520782 38.88452148 9.24291992 C37.90358017 9.24284439 36.92263885 9.24276886 35.91197205 9.24269104 C34.84531815 9.23752975 33.77866425 9.23236847 32.6796875 9.22705078 C31.05040062 9.22492836 31.05040062 9.22492836 29.38819885 9.22276306 C25.903303 9.21714501 22.41847033 9.20458946 18.93359375 9.19189453 C16.57747488 9.18688186 14.22135501 9.18231855 11.86523438 9.17822266 C6.07549911 9.16716972 0.28580094 9.15041404 -5.50390625 9.12939453 C-5.6015625 2.97705078 -5.6015625 2.97705078 -5.50390625 1.12939453 C-3.90338961 -0.47112211 -2.21544503 0.00207981 0 0 Z M-3.50390625 2.12939453 C-3.50390625 4.10939453 -3.50390625 6.08939453 -3.50390625 8.12939453 C11.67609375 8.12939453 26.85609375 8.12939453 42.49609375 8.12939453 C42.49609375 6.14939453 42.49609375 4.16939453 42.49609375 2.12939453 C27.31609375 2.12939453 12.13609375 2.12939453 -3.50390625 2.12939453 Z " fill="#A89F88" transform="translate(680.50390625,755.87060546875)"/>
<path d="M0 0 C1.65 0 3.3 0 5 0 C5.268125 0.94875 5.53625 1.8975 5.8125 2.875 C6.74986588 6.25267273 6.74986588 6.25267273 10 8 C12.18028396 8.35293451 12.18028396 8.35293451 14.5 8.3125 C15.66015625 8.33763672 15.66015625 8.33763672 16.84375 8.36328125 C19.51331977 7.91351678 20.33191679 7.0863639 22 5 C23.17574711 2.90010348 23.17574711 2.90010348 24 1 C24.99 1 25.98 1 27 1 C27.34338883 4.6914299 27.27811415 6.54677695 25.3125 9.75 C21.68471429 13.27973745 19.14139972 13.88954196 14.125 14.375 C9.42998245 14.23299569 6.76136425 12.80258513 3 10 C0.58194996 6.25592252 0 4.49512007 0 0 Z " fill="#D1C6A6" transform="translate(309,815)"/>
<path d="M0 0 C2.96175123 0.61277612 4.38058783 1.25372522 7 3 C6.01 3 5.02 3 4 3 C4.33 3.66 4.66 4.32 5 5 C5.09110781 6.87919548 5.11752837 8.76166792 5.11352539 10.64306641 C5.11344986 11.82413971 5.11337433 13.00521301 5.11329651 14.22207642 C5.10813522 15.50230682 5.10297394 16.78253723 5.09765625 18.1015625 C5.0962413 19.40829926 5.09482635 20.71503601 5.09336853 22.06137085 C5.08954894 25.53676258 5.07972342 29.01211257 5.06866455 32.48748779 C5.05843843 36.03331945 5.05386833 39.57915785 5.04882812 43.125 C5.03810066 50.08335222 5.02050836 57.04166981 5 64 C9.29 64 13.58 64 18 64 C14.47844036 66.34770643 12.49228157 66.37669614 8.3125 66.625 C7.13300781 66.69976563 5.95351563 66.77453125 4.73828125 66.8515625 C3.83464844 66.90054688 2.93101562 66.94953125 2 67 C2.00444122 66.21961365 2.00888245 65.43922729 2.01345825 64.63519287 C2.05354353 57.27837406 2.08398873 49.92160826 2.10362434 42.56470871 C2.11405858 38.78251229 2.12821116 35.00040617 2.15087891 31.21826172 C2.17262021 27.56782392 2.18457134 23.91747295 2.18975449 20.2669754 C2.19344794 18.87472416 2.20066034 17.48247762 2.21146011 16.09026337 C2.22599126 14.13932433 2.22681706 12.18829782 2.22705078 10.23730469 C2.231492 9.1269989 2.23593323 8.01669312 2.24050903 6.8727417 C2.0035883 4.04286013 1.46836296 2.39834586 0 0 Z " fill="#C9BDA1" transform="translate(756,681)"/>
<path d="M0 0 C1.32 0 2.64 0 4 0 C4 12.87 4 25.74 4 39 C2.68 39 1.36 39 0 39 C0 26.13 0 13.26 0 0 Z " fill="#D6CBAB" transform="translate(740,789)"/>
<path d="M0 0 C1.32 0 2.64 0 4 0 C4 12.87 4 25.74 4 39 C2.68 39 1.36 39 0 39 C0 26.13 0 13.26 0 0 Z " fill="#DACFAE" transform="translate(934,789)"/>
<path d="M0 0 C1.32 0 2.64 0 4 0 C4 12.87 4 25.74 4 39 C2.68 39 1.36 39 0 39 C0 26.13 0 13.26 0 0 Z " fill="#D6CAAA" transform="translate(869,789)"/>
<path d="M0 0 C1.32 0 2.64 0 4 0 C4 12.87 4 25.74 4 39 C2.68 39 1.36 39 0 39 C0 26.13 0 13.26 0 0 Z " fill="#D8CCAB" transform="translate(373,789)"/>
<path d="M0 0 C0.33 0 0.66 0 1 0 C1 20.13 1 40.26 1 61 C-1.64 61 -4.28 61 -7 61 C-7 63.97 -7 66.94 -7 70 C3.23 70 13.46 70 24 70 C24 70.33 24 70.66 24 71 C19.46102295 71.02465392 14.92208457 71.04283789 10.38305664 71.05493164 C8.83780234 71.0599714 7.29255284 71.0668032 5.74731445 71.07543945 C3.53074971 71.08752076 1.31424782 71.09323173 -0.90234375 71.09765625 C-1.94454323 71.10539818 -1.94454323 71.10539818 -3.00779724 71.11329651 C-4.6722933 71.11349277 -6.33665499 71.06189129 -8 71 C-9 70 -9 70 -9.1328125 67.75 C-9.13023437 66.8425 -9.12765625 65.935 -9.125 65 C-9.12757813 64.0925 -9.13015625 63.185 -9.1328125 62.25 C-9 60 -9 60 -8 59 C-5.36 59 -2.72 59 0 59 C0 39.53 0 20.06 0 0 Z " fill="#716C5F" transform="translate(279,687)"/>
<path d="M0 0 C3.96 0 7.92 0 12 0 C12 0.33 12 0.66 12 1 C10.35 1.33 8.7 1.66 7 2 C7.6815918 2.61258667 7.6815918 2.61258667 8.37695312 3.23754883 C10.42572372 5.08748361 12.46288939 6.9497367 14.5 8.8125 C15.57314453 9.77639648 15.57314453 9.77639648 16.66796875 10.75976562 C17.34472656 11.38173828 18.02148438 12.00371094 18.71875 12.64453125 C19.34716797 13.21534424 19.97558594 13.78615723 20.62304688 14.37426758 C22 16 22 16 22 19 C16.96591331 18.61848881 14.27280697 15.92870715 10.8125 12.5625 C10.27947266 12.05912109 9.74644531 11.55574219 9.19726562 11.03710938 C7.10263998 9.0531432 5.04001903 7.04001903 3 5 C3 3.68 3 2.36 3 1 C2.01 0.67 1.02 0.34 0 0 Z " fill="#CEC4A4" transform="translate(876,809)"/>
<path d="M0 0 C0.99 0 1.98 0 3 0 C3 12.87 3 25.74 3 39 C2.01 39 1.02 39 0 39 C0 26.13 0 13.26 0 0 Z " fill="#DBD0AE" transform="translate(806,789)"/>
<path d="M0 0 C1.32 0.33 2.64 0.66 4 1 C4 9.91 4 18.82 4 28 C2.68 28.33 1.36 28.66 0 29 C0 19.43 0 9.86 0 0 Z " fill="#DDD1AF" transform="translate(635,800)"/>
<path d="M0 0 C1.32 0 2.64 0 4 0 C4 9.24 4 18.48 4 28 C2.68 28 1.36 28 0 28 C0 18.76 0 9.52 0 0 Z " fill="#DFD3B0" transform="translate(659,789)"/>
<path d="M0 0 C3.40582416 1.70291208 4.23802888 5.57670224 5.6875 8.9375 C6.02072266 9.67935547 6.35394531 10.42121094 6.69726562 11.18554688 C7.53054465 13.09637175 8.27238686 15.04649424 9 17 C8.67 17.66 8.34 18.32 8 19 C7.34 18.01 6.68 17.02 6 16 C3.3443272 15.41651248 3.3443272 15.41651248 0.375 15.3125 C-0.62789062 15.24675781 -1.63078125 15.18101562 -2.6640625 15.11328125 C-3.43492187 15.07589844 -4.20578125 15.03851562 -5 15 C-4.43174347 9.45949887 -2.37113483 4.96284034 0 0 Z " fill="#3A3935" transform="translate(582,797)"/>
<path d="M0 0 C3.67445863 0.423976 5.51674884 2.27948427 8.21484375 4.66015625 C11.47346034 7.10590131 15.25014504 8.47005918 19 10 C19.66 10.33 20.32 10.66 21 11 C21 12.32 21 13.64 21 15 C13.38713284 13.64055944 5.82010095 11.37497222 1 5 C0.1875 2.1875 0.1875 2.1875 0 0 Z " fill="#D3C8A8" transform="translate(313,799)"/>
<path d="M0 0 C6.27 0 12.54 0 19 0 C19.33 1.32 19.66 2.64 20 4 C19 5 19 5 17.14233398 5.11352539 C16.35157471 5.10828857 15.56081543 5.10305176 14.74609375 5.09765625 C13.89208984 5.09443359 13.03808594 5.09121094 12.15820312 5.08789062 C11.26037109 5.07951172 10.36253906 5.07113281 9.4375 5.0625 C8.53580078 5.05798828 7.63410156 5.05347656 6.70507812 5.04882812 C4.46998686 5.03700225 2.23502563 5.0205222 0 5 C0 3.35 0 1.7 0 0 Z " fill="#C6BB9D" transform="translate(379,824)"/>
<path d="M0 0 C2.41760876 0.11426509 4.83347218 0.24099661 7.25 0.375 C7.93191406 0.4059375 8.61382812 0.436875 9.31640625 0.46875 C12.98739038 0.68259374 15.86251616 1.01077055 19 3 C17.64595503 3.02763357 16.29173445 3.04667422 14.9375 3.0625 C14.18339844 3.07410156 13.42929687 3.08570313 12.65234375 3.09765625 C9.41635123 2.97851072 6.20563978 2.45794854 3 2 C3 21.47 3 40.94 3 61 C2.67 61 2.34 61 2 61 C2 41.53 2 22.06 2 2 C1.34 2 0.68 2 0 2 C0 1.34 0 0.68 0 0 Z " fill="#716D60" transform="translate(433,683)"/>
<path d="M0 0 C1.58206057 0.00667536 3.16410534 0.0186375 4.74609375 0.03515625 C5.55240234 0.03966797 6.35871094 0.04417969 7.18945312 0.04882812 C9.18753131 0.06065107 11.18557158 0.07858711 13.18359375 0.09765625 C12.85359375 1.74765625 12.52359375 3.39765625 12.18359375 5.09765625 C6.90359375 5.09765625 1.62359375 5.09765625 -3.81640625 5.09765625 C-4.14640625 3.77765625 -4.47640625 2.45765625 -4.81640625 1.09765625 C-3.81640625 0.09765625 -3.81640625 0.09765625 0 0 Z " fill="#C8BEA0" transform="translate(943.81640625,804.90234375)"/>
<path d="M0 0 C6.93 0 13.86 0 21 0 C21 1.32 21 2.64 21 4 C14.4 4 7.8 4 1 4 C0.67 2.68 0.34 1.36 0 0 Z " fill="#DDD1AF" transform="translate(939,789)"/>
<path d="M0 0 C0.66 0.33 1.32 0.66 2 1 C2 13.54 2 26.08 2 39 C0.02 39.495 0.02 39.495 -2 40 C-2 39.34 -2 38.68 -2 38 C-1.34 38 -0.68 38 0 38 C0 25.46 0 12.92 0 0 Z " fill="#ADA48B" transform="translate(767,789)"/>
<path d="M0 0 C0.33 0 0.66 0 1 0 C1 8.25 1 16.5 1 25 C13.87 25 26.74 25 40 25 C40 28.63 40 32.26 40 36 C39.67 36 39.34 36 39 36 C39 32.7 39 29.4 39 26 C25.47 26.33 11.94 26.66 -2 27 C-1.505 25.515 -1.505 25.515 -1 24 C-0.85110253 22.15533558 -0.7520899 20.30642725 -0.68359375 18.45703125 C-0.64169922 17.38388672 -0.59980469 16.31074219 -0.55664062 15.20507812 C-0.51732422 14.08552734 -0.47800781 12.96597656 -0.4375 11.8125 C-0.39431641 10.68134766 -0.35113281 9.55019531 -0.30664062 8.38476562 C-0.20050901 5.58996646 -0.09845615 2.79507838 0 0 Z " fill="#B8AE94" transform="translate(525,721)"/>
<path d="M0 0 C6.6 0 13.2 0 20 0 C20 1.32 20 2.64 20 4 C13.4 4 6.8 4 0 4 C0 2.68 0 1.36 0 0 Z " fill="#DFD3B1" transform="translate(812,789)"/>
<path d="M0 0 C3.28773252 0.39139673 5.8187291 0.90834903 8.7890625 2.41015625 C12.07063566 4.03497411 15.23953202 5.09774324 18.75 6.125 C24.83333333 7.91666667 24.83333333 7.91666667 27 9 C27 9.66 27 10.32 27 11 C23.50045021 10.5714837 20.19908019 10.058553 16.8125 9.0625 C11.60774559 7.61199467 6.33480211 6.82343415 1 6 C1 5.67 1 5.34 1 5 C3.31 5 5.62 5 8 5 C8 4.34 8 3.68 8 3 C7.05125 2.87625 6.1025 2.7525 5.125 2.625 C2 2 2 2 0 0 Z " fill="#A09882" transform="translate(688,600)"/>
<path d="M0 0 C0.33 0 0.66 0 1 0 C1 20.79 1 41.58 1 63 C2.32 63 3.64 63 5 63 C5 63.66 5 64.32 5 65 C2.69 65 0.38 65 -2 65 C-2 64.34 -2 63.68 -2 63 C-1.34 63 -0.68 63 0 63 C0 42.21 0 21.42 0 0 Z " fill="#C4B99E" transform="translate(293,684)"/>
<path d="M0 0 C0.33 0 0.66 0 1 0 C1 20.13 1 40.26 1 61 C1.66 61.33 2.32 61.66 3 62 C0.525 62.495 0.525 62.495 -2 63 C-1.67 62.01 -1.34 61.02 -1 60 C-0.88324185 58.05283354 -0.82330075 56.10206523 -0.79467773 54.15161133 C-0.77473251 52.9505928 -0.75478729 51.74957428 -0.73423767 50.51216125 C-0.71752518 49.21521835 -0.70081268 47.91827545 -0.68359375 46.58203125 C-0.66301707 45.2410977 -0.64202041 43.90017054 -0.62062073 42.55924988 C-0.56547373 39.03298111 -0.51603206 35.50665452 -0.46777344 31.98028564 C-0.4175045 28.38068507 -0.36184661 24.78116827 -0.30664062 21.18164062 C-0.19914929 14.12116648 -0.09768435 7.06061718 0 0 Z " fill="#CCC0A3" transform="translate(343,685)"/>
<path d="M0 0 C0.33 0 0.66 0 1 0 C1 20.13 1 40.26 1 61 C1.66 61.33 2.32 61.66 3 62 C0.525 62.495 0.525 62.495 -2 63 C-1.67 62.01 -1.34 61.02 -1 60 C-0.88324185 58.05283354 -0.82330075 56.10206523 -0.79467773 54.15161133 C-0.77473251 52.9505928 -0.75478729 51.74957428 -0.73423767 50.51216125 C-0.71752518 49.21521835 -0.70081268 47.91827545 -0.68359375 46.58203125 C-0.66301707 45.2410977 -0.64202041 43.90017054 -0.62062073 42.55924988 C-0.56547373 39.03298111 -0.51603206 35.50665452 -0.46777344 31.98028564 C-0.4175045 28.38068507 -0.36184661 24.78116827 -0.30664062 21.18164062 C-0.19914929 14.12116648 -0.09768435 7.06061718 0 0 Z " fill="#C0B59A" transform="translate(434,685)"/>
<path d="M0 0 C7.26 0 14.52 0 22 0 C22 0.99 22 1.98 22 3 C14.74 3 7.48 3 0 3 C0 2.01 0 1.02 0 0 Z " fill="#E0D4B1" transform="translate(939,825)"/>
<path d="M0 0 C6.6 0 13.2 0 20 0 C20 0.99 20 1.98 20 3 C13.4 3 6.8 3 0 3 C0 2.01 0 1.02 0 0 Z " fill="#E5D9B5" transform="translate(812,825)"/>
<path d="M0 0 C4.62 0 9.24 0 14 0 C14 1.32 14 2.64 14 4 C9.38 4 4.76 4 0 4 C0 2.68 0 1.36 0 0 Z " fill="#D7CCAB" transform="translate(513,807)"/>
<path d="M0 0 C4.29 0 8.58 0 13 0 C13.33 12.87 13.66 25.74 14 39 C13.01 39 12.02 39 11 39 C11.33 26.46 11.66 13.92 12 1 C8.04 1 4.08 1 0 1 C0 0.67 0 0.34 0 0 Z " fill="#C3B89D" transform="translate(182,673)"/>
<path d="M0 0 C5.94 0 11.88 0 18 0 C18 0.99 18 1.98 18 3 C12.06 3 6.12 3 0 3 C0 2.01 0 1.02 0 0 Z " fill="#E1D5B3" transform="translate(745,806)"/>
<path d="M0 0 C5.28 0 10.56 0 16 0 C16 0.99 16 1.98 16 3 C10.39 3 4.78 3 -1 3 C-0.67 2.01 -0.34 1.02 0 0 Z " fill="#D9CEAD" transform="translate(812,805)"/>
<path d="M0 0 C3.63 0 7.26 0 11 0 C11.33 1.32 11.66 2.64 12 4 C8.04 4 4.08 4 0 4 C0 2.68 0 1.36 0 0 Z " fill="#DACFAE" transform="translate(577,812)"/>
<path d="M0 0 C1.76923828 0.01353516 1.76923828 0.01353516 3.57421875 0.02734375 C4.47785156 0.03894531 5.38148438 0.05054688 6.3125 0.0625 C6.3125 0.3925 6.3125 0.7225 6.3125 1.0625 C5.06533203 1.15337891 5.06533203 1.15337891 3.79296875 1.24609375 C2.16294922 1.37177734 2.16294922 1.37177734 0.5 1.5 C-0.57894531 1.58121094 -1.65789063 1.66242187 -2.76953125 1.74609375 C-7.54991479 2.26444859 -9.22399479 3.42310764 -12.1875 7.0625 C-15.35416667 10.95138889 -15.35416667 10.95138889 -18.6875 12.0625 C-17.31273555 6.86894539 -13.94408407 4.05822509 -9.6875 1.0625 C-6.26517028 -0.07827657 -3.60076783 -0.03565117 0 0 Z " fill="#666156" transform="translate(870.6875,684.9375)"/>
<path d="M0 0 C0.66 0.33 1.32 0.66 2 1 C-2.03523352 5.81123996 -6.04467233 10.13242719 -11 14 C-11 10.30159372 -10.17133056 9.68584567 -7.75 7 C-7.14671875 6.319375 -6.5434375 5.63875 -5.921875 4.9375 C-4.06233388 3.06284066 -2.15205789 1.52358081 0 0 Z " fill="#BAB096" transform="translate(852,676)"/>
<path d="M0 0 C-1.2065625 0.9590625 -1.2065625 0.9590625 -2.4375 1.9375 C-4.2750504 3.40603502 -4.2750504 3.40603502 -6 5 C-6.1584265 7.0708472 -6.25124422 9.14678029 -6.31640625 11.22265625 C-6.35830078 12.48271484 -6.40019531 13.74277344 -6.44335938 15.04101562 C-6.48317596 16.38150736 -6.52288814 17.7220022 -6.5625 19.0625 C-6.60568042 20.40691523 -6.64929456 21.7513166 -6.69335938 23.09570312 C-6.79985358 26.3970234 -6.9018646 29.69842236 -7 33 C-7.33 33 -7.66 33 -8 33 C-8.07419134 28.78250781 -8.1286204 24.56536189 -8.16479492 20.34741211 C-8.17987589 18.91277448 -8.2003438 17.47818292 -8.22631836 16.04370117 C-8.26273437 13.98084141 -8.27973243 11.91859142 -8.29296875 9.85546875 C-8.3086792 8.61434326 -8.32438965 7.37321777 -8.34057617 6.09448242 C-8 3 -8 3 -6.6496582 1.08325195 C-4.38329383 -0.40496156 -2.65029886 -0.2148891 0 0 Z " fill="#C8BCA0" transform="translate(581,350)"/>
<path d="M0 0 C1.61363928 3.22727857 0.08456242 5.68923051 -1 9 C-1.51892822 9.95471191 -1.51892822 9.95471191 -2.04833984 10.92871094 C-3.15039524 13.32733535 -3.31287751 15.13481524 -3.4140625 17.765625 C-3.45273437 18.65507813 -3.49140625 19.54453125 -3.53125 20.4609375 C-3.5621875 21.38132812 -3.593125 22.30171875 -3.625 23.25 C-3.66367187 24.18585937 -3.70234375 25.12171875 -3.7421875 26.0859375 C-3.83624844 28.39043054 -3.92189399 30.69492013 -4 33 C-4.33 33 -4.66 33 -5 33 C-5.84047504 9.78672578 -5.84047504 9.78672578 -1 1 C-0.67 0.67 -0.34 0.34 0 0 Z " fill="#8D8674" transform="translate(839,690)"/>
<path d="M0 0 C0 0.33 0 0.66 0 1 C-1.65 1 -3.3 1 -5 1 C-5 1.66 -5 2.32 -5 3 C-3.35 3 -1.7 3 0 3 C0 3.33 0 3.66 0 4 C-5.94 4.495 -5.94 4.495 -12 5 C-12.33 3.68 -12.66 2.36 -13 1 C-8.59085217 -0.10228696 -4.51617599 -0.07654536 0 0 Z " fill="#CCC1A4" transform="translate(696,180)"/>
<path d="M0 0 C0.84355129 2.92129449 1.10831925 5.47587506 1.0625 8.51171875 C1.05476562 9.35154297 1.04703125 10.19136719 1.0390625 11.05664062 C1.02617188 11.92482422 1.01328125 12.79300781 1 13.6875 C0.97460788 15.42051212 0.95353507 17.1535948 0.9375 18.88671875 C0.92589844 19.65201904 0.91429687 20.41731934 0.90234375 21.20581055 C0.80104989 23.02359366 0.80104989 23.02359366 2 24 C2.04080783 25.99958364 2.04254356 28.00045254 2 30 C-1.10042499 26.89957501 -1.12748827 24.18636946 -1.1328125 20 C-1.13410156 19.030625 -1.13539063 18.06125 -1.13671875 17.0625 C-1.13285156 16.051875 -1.12898437 15.04125 -1.125 14 C-1.12886719 12.989375 -1.13273438 11.97875 -1.13671875 10.9375 C-1.13542969 9.968125 -1.13414062 8.99875 -1.1328125 8 C-1.13168457 7.113125 -1.13055664 6.22625 -1.12939453 5.3125 C-1 3 -1 3 0 0 Z " fill="#767162" transform="translate(946,701)"/>
<path d="M0 0 C-3.26448246 3.26448246 -7.54626934 4.09730645 -12 5 C-14.52470838 4.96437801 -16.52734253 4.59128766 -19 4 C-19 3.67 -19 3.34 -19 3 C-16.77228658 2.49356447 -14.54275924 1.9951038 -12.3125 1.5 C-10.45044922 1.08234375 -10.45044922 1.08234375 -8.55078125 0.65625 C-5.57601782 0.10645874 -3.00631398 -0.13795705 0 0 Z " fill="#B5AB92" transform="translate(581,170)"/>
<path d="M0 0 C1.65 0 3.3 0 5 0 C6.39850246 2.79700492 6.0101384 4.98115359 5.87890625 8.1015625 C5.83056641 9.31328125 5.78222656 10.525 5.73242188 11.7734375 C5.67634766 13.04445313 5.62027344 14.31546875 5.5625 15.625 C5.51029297 16.90375 5.45808594 18.1825 5.40429688 19.5 C5.2743123 22.666897 5.13933598 25.83350287 5 29 C4.67 29 4.34 29 4 29 C3.98541748 28.19256348 3.97083496 27.38512695 3.95581055 26.55322266 C3.88153914 22.9099873 3.78480975 19.26768967 3.6875 15.625 C3.66494141 14.35398437 3.64238281 13.08296875 3.61914062 11.7734375 C3.58369141 10.56171875 3.54824219 9.35 3.51171875 8.1015625 C3.48553467 6.98088379 3.45935059 5.86020508 3.43237305 4.70556641 C3.28968994 3.81272949 3.14700684 2.91989258 3 2 C2.01 1.34 1.02 0.68 0 0 Z " fill="#3B3A36" transform="translate(635,799)"/>
<path d="M0 0 C0.99 0.33 1.98 0.66 3 1 C3.76681614 10.73004484 3.76681614 10.73004484 1.88671875 13.84375 C0.5 15.1875 0.5 15.1875 -2 17 C-1.67 16.236875 -1.34 15.47375 -1 14.6875 C0.33945668 9.74825349 0.16287658 5.08536891 0 0 Z " fill="#4E4B44" transform="translate(532,807)"/>
<path d="M0 0 C0.99 0.33 1.98 0.66 3 1 C4.40664926 1.14492123 5.8181133 1.24628931 7.23046875 1.31640625 C8.43413086 1.37924805 8.43413086 1.37924805 9.66210938 1.44335938 C10.49548828 1.48267578 11.32886719 1.52199219 12.1875 1.5625 C13.03248047 1.60568359 13.87746094 1.64886719 14.74804688 1.69335938 C16.83184433 1.79931518 18.91590103 1.9001502 21 2 C21 2.33 21 2.66 21 3 C17.87549468 3.19645093 14.75038555 3.38063489 11.625 3.5625 C10.29082031 3.64661133 10.29082031 3.64661133 8.9296875 3.73242188 C7.65351562 3.80493164 7.65351562 3.80493164 6.3515625 3.87890625 C5.56604004 3.9260376 4.78051758 3.97316895 3.97119141 4.02172852 C2 4 2 4 0 3 C0 2.01 0 1.02 0 0 Z " fill="#C2B79C" transform="translate(1041,681)"/>
<path d="M0 0 C4.95 0 9.9 0 15 0 C11.47844036 2.34770643 9.49228157 2.37669614 5.3125 2.625 C4.13300781 2.69976563 2.95351563 2.77453125 1.73828125 2.8515625 C0.83464844 2.90054688 -0.06898438 2.94953125 -1 3 C-0.67 2.01 -0.34 1.02 0 0 Z " fill="#A19882" transform="translate(759,745)"/>
<path d="M0 0 C0.66 0.33 1.32 0.66 2 1 C2 1.66 2 2.32 2 3 C-2.34464536 2.39174965 -6.67551867 1.73832608 -11 1 C-7.22482858 -1.56711656 -4.33016827 -0.88207131 0 0 Z " fill="#787264" transform="translate(713,608)"/>
<path d="M0 0 C0.33 0.66 0.66 1.32 1 2 C6.94 2 12.88 2 19 2 C19 2.33 19 2.66 19 3 C12.4 3.33 5.8 3.66 -1 4 C-0.67 2.68 -0.34 1.36 0 0 Z " fill="#7E7868" transform="translate(1044,709)"/>
<path d="M0 0 C-0.33 0.66 -0.66 1.32 -1 2 C-3.64860427 2.59355614 -6.29197322 2.74209269 -9 3 C-8.67 2.01 -8.34 1.02 -8 0 C-2.25 -1.125 -2.25 -1.125 0 0 Z " fill="#E4D8B7" transform="translate(685,183)"/>
<path d="M0 0 C0.66 0.33 1.32 0.66 2 1 C-1.96 4.465 -1.96 4.465 -6 8 C-6 5 -6 5 -4.6875 3.61328125 C-3.125 2.40885417 -1.5625 1.20442708 0 0 Z " fill="#BCB296" transform="translate(510,790)"/>
<path d="M0 0 C0.99 0.33 1.98 0.66 3 1 C-0.465 3.97 -0.465 3.97 -4 7 C-4 4 -4 4 -2 1.8125 C-1.34 1.214375 -0.68 0.61625 0 0 Z " fill="#B7AE93" transform="translate(437,792)"/>
<path d="M0 0 C0.33 0 0.66 0 1 0 C0.67 2.97 0.34 5.94 0 9 C-0.66 8.67 -1.32 8.34 -2 8 C-1.125 1.125 -1.125 1.125 0 0 Z " fill="#E6DAB6" transform="translate(433,802)"/>
<path d="M0 0 C0.8971875 0.309375 0.8971875 0.309375 1.8125 0.625 C0.69875 1.2746875 0.69875 1.2746875 -0.4375 1.9375 C-2.80583926 3.39079909 -4.99674065 4.92107606 -7.1875 6.625 C-4.6484375 -0.796875 -4.6484375 -0.796875 0 0 Z " fill="#CEC3A4" transform="translate(320.1875,789.375)"/>
</svg>
